<svg width="50" height="50" viewBox="0 0 50 50" fill="none" xmlns="http://www.w3.org/2000/svg">
<g clip-path="url(#clip0_1714_43)">
<path d="M17.1641 50C17.937 49.6588 18.4783 48.8703 18.4783 47.9525V41.9306C18.4783 41.7109 18.4957 41.4823 18.5228 41.2503C18.5076 41.2548 18.4935 41.2581 18.4783 41.2615C18.4783 41.2615 15.2174 41.2615 14.5652 41.2615C12.9348 41.2615 11.5217 40.5924 10.8696 39.2542C10.1087 37.8044 9.78261 35.3511 7.82609 34.0128C7.5 33.7898 7.71739 33.4553 8.36956 33.4553C9.02174 33.5668 10.4348 34.4589 11.3043 35.6856C12.2826 36.9123 13.2609 37.916 15 37.916C17.7033 37.916 19.1522 37.7766 20.0239 37.297C21.0391 35.7481 22.4446 34.5704 23.913 34.5704V34.5426C17.7522 34.3396 13.8163 32.2386 11.9837 28.9946C8 29.0414 4.53152 29.4462 2.55217 29.783C2.48913 29.4183 2.43478 29.0514 2.38804 28.6823C4.3413 28.3522 7.65217 27.9608 11.4587 27.8861C11.337 27.5783 11.2315 27.2627 11.1424 26.9393C7.32609 26.7408 4.03261 26.8958 2.24348 27.0475C2.22174 26.6772 2.19239 26.3081 2.18804 25.9334C3.98043 25.7829 7.18478 25.6323 10.9033 25.8096C10.8174 25.252 10.762 24.6822 10.762 24.0889C10.762 22.1931 11.4141 20.1858 12.6098 18.513C12.0663 16.6172 11.3054 12.6026 12.8272 11.1529C15.762 11.1529 17.8272 12.6026 18.8054 13.4947C20.6522 12.713 22.7174 12.2669 25 12.2669C27.2826 12.2669 29.3478 12.713 31.087 13.4936C32.0652 12.6015 34.1304 11.1518 37.0652 11.1518C38.6956 12.713 37.8261 16.7276 37.2826 18.5119C38.4783 20.1847 39.1304 22.0805 39.0217 24.0878C39.0217 24.6275 38.9728 25.1483 38.9022 25.6591C42.7054 25.4673 45.9967 25.6212 47.8196 25.7728C47.8174 26.1486 47.7837 26.5155 47.7641 26.8869C45.9478 26.733 42.5739 26.5746 38.6783 26.7876C38.5815 27.1623 38.4641 27.527 38.325 27.8805C42.1793 27.9318 45.5696 28.3143 47.6163 28.6489C47.5696 29.0191 47.5152 29.386 47.4522 29.7495C45.3739 29.4083 41.8315 29.0091 37.8011 28.989C35.9913 32.1985 32.1272 34.2916 26.087 34.5359V34.5704C28.913 34.5704 31.5217 38.9196 31.5217 41.9306V47.9525C31.5217 48.8703 32.063 49.6588 32.8359 50C42.7935 46.6188 50 36.9837 50 25.649C50 11.5064 38.7859 0 25 0C11.2141 0 0 11.5064 0 25.649C0 36.9837 7.20652 46.6188 17.1641 50Z" fill="white"/>
</g>
<defs>
<clipPath id="clip0_1714_43">
<rect width="50" height="50" fill="white"/>
</clipPath>
</defs>
</svg>
