<svg width="50" height="50" viewBox="0 0 50 50" fill="none" xmlns="http://www.w3.org/2000/svg">
<path fill-rule="evenodd" clip-rule="evenodd" d="M10.4167 41.6667C6.96491 41.6667 4.16669 38.8685 4.16669 35.4167L4.16669 14.5834C4.16669 11.1316 6.96491 8.33338 10.4167 8.33338L39.5834 8.33337C43.0351 8.33337 45.8334 11.1316 45.8334 14.5834V35.4167C45.8334 38.8685 43.0351 41.6667 39.5834 41.6667H10.4167ZM15.208 17.9692C14.7768 17.6242 14.1475 17.6941 13.8025 18.1253C13.4575 18.5566 13.5274 19.1859 13.9587 19.5309L23.1259 26.8647C24.2216 27.7413 25.7784 27.7413 26.8741 26.8647L36.0414 19.5309C36.4726 19.1859 36.5426 18.5566 36.1976 18.1253C35.8525 17.6941 35.2233 17.6242 34.792 17.9692L25.6247 25.303C25.2595 25.5952 24.7405 25.5952 24.3753 25.303L15.208 17.9692Z" fill="white"/>
</svg>
