<svg width="50" height="42" viewBox="0 0 50 42" fill="none" xmlns="http://www.w3.org/2000/svg">
<path d="M50.0625 5.4375C48.2148 6.25781 46.2344 6.80859 44.1523 7.05859C46.2773 5.78516 47.9102 3.76953 48.6758 1.37109C46.6914 2.54687 44.4844 3.40234 42.1445 3.86328C40.2695 1.86328 37.5977 0.617188 34.6406 0.617188C28.9609 0.617188 24.3555 5.21875 24.3555 10.8984C24.3555 11.7031 24.4492 12.4883 24.625 13.2422C16.0781 12.8125 8.50391 8.71875 3.42969 2.49609C2.54297 4.01953 2.03906 5.78516 2.03906 7.66797C2.03906 11.2344 3.85156 14.3828 6.61328 16.2305C4.92578 16.1758 3.33984 15.7109 1.95312 14.9414C1.95312 14.9844 1.95312 15.0273 1.95312 15.0703C1.95312 20.0547 5.5 24.207 10.1992 25.1562C9.33984 25.3906 8.42969 25.5156 7.49219 25.5156C6.82812 25.5156 6.18359 25.4531 5.55469 25.3281C6.86719 29.4102 10.6641 32.3906 15.1602 32.4727C11.6445 35.2305 7.21094 36.8711 2.39062 36.8711C1.55859 36.8711 0.742188 36.8242 -0.0585938 36.7266C4.48828 39.6484 9.89453 41.3477 15.7031 41.3477C34.6172 41.3477 44.9609 25.6797 44.9609 12.0938C44.9609 11.6484 44.9492 11.1992 44.9336 10.7617C46.9414 9.3125 48.6836 7.5 50.0625 5.4375Z" fill="white"/>
</svg>
